<svg width="65" height="58" viewBox="0 0 65 58" fill="none" xmlns="http://www.w3.org/2000/svg">
<path d="M21.2737 21.2724C21.2737 23.8216 22.8693 24.3763 26.7938 25.1144C30.1637 25.7471 34.7852 26.6182 34.7852 31.9367C34.7852 35.2837 31.8692 38.0758 28.0318 38.6673V41.3724C28.0318 42.2114 27.3532 42.8854 26.5187 42.8854C25.6797 42.8854 25.0057 42.2068 25.0057 41.3724V38.6673C21.1682 38.0758 18.2522 35.2837 18.2522 31.9367C18.2522 31.0977 18.9307 30.4236 19.7652 30.4236C20.6043 30.4236 21.2783 31.1022 21.2783 31.9367C21.2783 34.0412 23.6303 35.7513 26.5187 35.7513C29.3614 35.7513 31.7592 34.0044 31.7592 31.9367C31.7592 29.3875 30.1636 28.8328 26.239 28.0946C22.8691 27.4619 18.2476 26.5909 18.2476 21.2724C18.2476 17.9254 21.1636 15.1332 25.0011 14.5418V11.8275C25.0011 10.9885 25.6797 10.3145 26.5141 10.3145C27.3532 10.3145 28.0272 10.993 28.0272 11.8275V14.5418C31.8647 15.1332 34.7807 17.9254 34.7807 21.2724C34.7807 22.1114 34.1021 22.7854 33.2676 22.7854C32.4286 22.7854 31.7546 22.1069 31.7546 21.2724C31.7546 19.2046 29.3567 17.4578 26.5141 17.4578C23.6257 17.4578 21.2737 19.1725 21.2737 21.2724ZM52.4372 28.6952C52.992 21.7354 50.7362 14.8265 46.1284 9.53069C41.1906 3.85468 34.0426 0.599365 26.5144 0.599365C12.168 0.599365 0.5 12.2678 0.5 26.609C0.5 40.9503 12.1684 52.6187 26.5144 52.6187C30.329 52.6187 34.1115 51.7751 37.5455 50.1705C40.0488 54.4894 44.7162 57.4008 50.0527 57.4008C58.0212 57.4008 64.5 50.9179 64.5 42.9535C64.5 35.7965 59.2687 29.8407 52.433 28.7033L52.4372 28.6952ZM26.5144 49.5839C13.8417 49.5839 3.53055 39.2773 3.53055 26.6095C3.53055 13.9415 13.8419 3.63508 26.5144 3.63508C33.1625 3.63508 39.4805 6.50976 43.8409 11.5257C47.926 16.2205 49.9204 22.3505 49.4115 28.5176C41.7409 28.8569 35.6061 35.1978 35.6061 42.9509C35.6061 44.5051 35.8537 45.9999 36.3122 47.4028C33.2632 48.8379 29.9026 49.5898 26.5143 49.5898L26.5144 49.5839ZM50.0581 54.3614C43.763 54.3614 38.6417 49.24 38.6417 42.945C38.6417 36.65 43.763 31.5287 50.0581 31.5287C56.3531 31.5287 61.4744 36.65 61.4744 42.945C61.4744 49.24 56.3531 54.3614 50.0581 54.3614ZM57.3755 38.0208C57.9532 38.626 57.9303 39.5888 57.3205 40.1619L49.1687 47.9149C48.8752 48.1946 48.4993 48.3321 48.1233 48.3321C47.7336 48.3321 47.3485 48.1854 47.0504 47.8874L42.7637 43.6006C42.1722 43.0092 42.1722 42.051 42.7637 41.4595C43.3551 40.8681 44.3133 40.8681 44.9048 41.4595L48.1462 44.7056L55.2299 37.9704C55.8351 37.3927 56.7979 37.4156 57.371 38.0254L57.3755 38.0208Z" fill="url(#paint0_linear_85_1155)" fill-opacity="0.85"/>
<defs>
<linearGradient id="paint0_linear_85_1155" x1="0.5" y1="23.9955" x2="65.6974" y2="40.0664" gradientUnits="userSpaceOnUse">
<stop stop-color="#4D4D4D" stop-opacity="0.75"/>
<stop offset="1"/>
</linearGradient>
</defs>
</svg>
