<svg width="80" height="80" viewBox="0 0 80 80" fill="none" xmlns="http://www.w3.org/2000/svg">
<path d="M40.2359 28.2241C33.6119 28.2241 28.2229 33.6131 28.2229 40.2371C28.2229 41.6181 29.3419 42.7371 30.7229 42.7371C32.1039 42.7371 33.2229 41.6181 33.2229 40.2371C33.2229 36.3701 36.3689 33.2241 40.2359 33.2241C41.6169 33.2241 42.7359 32.1051 42.7359 30.7241C42.7359 29.3431 41.6169 28.2241 40.2359 28.2241Z" fill="black"/>
<path d="M63.437 65.6249H61.25V40.2359C61.25 28.6489 51.823 19.2229 40.236 19.2229C28.649 19.2229 19.223 28.6489 19.223 40.2359V65.6249H16.562C12.599 65.6249 9.375 68.8499 9.375 72.8129C9.375 76.7759 12.6 79.9999 16.562 79.9999H63.437C67.4 79.9999 70.625 76.7749 70.625 72.8119C70.625 68.8489 67.4 65.6249 63.437 65.6249ZM24.224 40.2359C24.224 31.4069 31.408 24.2229 40.237 24.2229C49.067 24.2229 56.251 31.4069 56.251 40.2359V65.6249H24.224V40.2359ZM63.437 74.9999H16.562C15.356 74.9999 14.375 74.0189 14.375 72.8119C14.375 71.6049 15.356 70.6239 16.562 70.6239H63.437C64.643 70.6239 65.625 71.6049 65.625 72.8119C65.625 74.0189 64.644 74.9999 63.437 74.9999Z" fill="black"/>
<path d="M40 14.375C41.381 14.375 42.5 13.256 42.5 11.875V2.5C42.5 1.119 41.381 0 40 0C38.619 0 37.5 1.119 37.5 2.5V11.875C37.5 13.256 38.619 14.375 40 14.375Z" fill="black"/>
<path d="M59.8879 22.612C60.5279 22.612 61.1669 22.368 61.6559 21.88L68.2849 15.251C69.2619 14.274 69.2619 12.692 68.2849 11.716C67.3079 10.74 65.7259 10.739 64.7499 11.716L58.1209 18.345C57.1439 19.322 57.1439 20.904 58.1209 21.88C58.6079 22.368 59.2479 22.612 59.8879 22.612Z" fill="black"/>
<path d="M18.345 21.8799C18.833 22.3679 19.473 22.6119 20.113 22.6119C20.753 22.6119 21.392 22.3679 21.881 21.8799C22.858 20.9029 22.858 19.3209 21.881 18.3449L15.252 11.7159C14.275 10.7389 12.693 10.7389 11.717 11.7159C10.741 12.6929 10.74 14.2749 11.717 15.2509L18.345 21.8799Z" fill="black"/>
<path d="M14.375 40C14.375 38.619 13.256 37.5 11.875 37.5H2.5C1.119 37.5 0 38.619 0 40C0 41.381 1.119 42.5 2.5 42.5H11.875C13.256 42.5 14.375 41.381 14.375 40Z" fill="black"/>
<path d="M77.5 37.5H68.125C66.744 37.5 65.625 38.619 65.625 40C65.625 41.381 66.744 42.5 68.125 42.5H77.5C78.881 42.5 80 41.381 80 40C80 38.619 78.881 37.5 77.5 37.5Z" fill="black"/>
</svg>
