<svg width="59" height="92" viewBox="0 0 59 92" fill="none" xmlns="http://www.w3.org/2000/svg">
<path d="M42.9849 41.9219C42.9068 40.9532 42.1411 40.1875 41.188 40.125C41.0005 40.125 37.9068 39.9063 34.7349 41.0469C34.7193 36.4063 30.6411 32.8438 30.4693 32.6875C29.7349 32.0625 28.6568 32.0625 27.9224 32.6875C27.7505 32.8438 23.6724 36.4063 23.6568 41.0469C20.4849 39.9063 17.3912 40.1094 17.2037 40.125C16.235 40.2031 15.4693 40.9688 15.4068 41.9219C15.3912 42.1875 14.9537 48.5781 18.813 52.4379C21.3599 54.9848 24.9849 55.6567 27.2505 55.8129V60.9691C27.2505 62.0472 28.1255 62.9222 29.2036 62.9222C30.2817 62.9222 31.1567 62.0472 31.1567 60.9691V55.8129C33.4223 55.6567 37.0473 54.9848 39.5942 52.4379C43.4536 48.5785 43.0161 42.1879 43.0004 41.9219H42.9849ZM29.1879 37.0313C30.0004 38.1094 30.8285 39.5782 30.8285 41.0625C30.8285 42.5468 30.0004 44.0156 29.1879 45.0937C28.3754 44.0156 27.5473 42.5468 27.5473 41.0625C27.5473 39.5782 28.3754 38.1094 29.1879 37.0313ZM21.5629 49.6723C20.0004 48.1098 19.5004 45.7192 19.3441 44.0629C21.0003 44.2192 23.391 44.7192 24.9535 46.2817C26.516 47.8443 27.016 50.2348 27.1723 51.8911C25.5161 51.7349 23.1254 51.2349 21.5629 49.6723ZM36.8129 49.6723C35.2504 51.2348 32.8598 51.7348 31.2035 51.8911C31.3597 50.2349 31.8598 47.8442 33.4223 46.2817C34.9849 44.7192 37.3754 44.2192 39.0317 44.0629C38.8755 45.7191 38.3755 48.1098 36.8129 49.6723Z" fill="black"/>
<path d="M56.4379 67.172H55.1254V28.203H56.4379C57.516 28.203 58.391 27.328 58.391 26.2499C58.391 25.1718 57.516 24.2968 56.4379 24.2968H55.1254V19.7812C55.1254 15.5937 51.7192 12.1874 47.5316 12.1874H41.9535V3.9062H45.766C46.8441 3.9062 47.7191 3.0312 47.7191 1.9531C47.7191 0.875 46.8441 0 45.766 0H12.625C11.5469 0 10.6719 0.875 10.6719 1.9531C10.6719 3.0312 11.5469 3.9062 12.625 3.9062H16.4375V12.1874H10.8594C6.6719 12.1874 3.2656 15.5936 3.2656 19.7812V24.2968H1.9531C0.875 24.2968 0 25.1718 0 26.2499C0 27.328 0.875 28.203 1.9531 28.203H3.2656V67.172H1.9531C0.875 67.172 0 68.047 0 69.1251C0 70.2032 0.875 71.0782 1.9531 71.0782H3.2656V75.5938C3.2656 79.3126 5.9687 82.4063 9.5 83.0469V89.4375C9.5 90.5156 10.375 91.3906 11.4531 91.3906H46.9691C48.0472 91.3906 48.9222 90.5156 48.9222 89.4375V83.0469C52.4691 82.4063 55.1566 79.3125 55.1566 75.5938V71.0782H56.4691C57.5472 71.0782 58.4222 70.2032 58.4222 69.1251C58.4222 68.047 57.5472 67.172 56.4691 67.172H56.4379ZM20.3289 3.906H38.0479V12.1872H31.1417V9.7653C31.1417 8.6872 30.2667 7.8122 29.1886 7.8122C28.1105 7.8122 27.2355 8.6872 27.2355 9.7653V12.1872H20.3293L20.3289 3.906ZM7.1409 19.781C7.1409 17.7498 8.7971 16.0935 10.8284 16.0935H47.5314C49.5626 16.0935 51.2189 17.7497 51.2189 19.781V24.2966H7.1409V19.781ZM7.1409 28.2029H51.2189V67.1719H7.1409V28.2029ZM44.9849 87.4999H13.3759V83.203H44.9849V87.4999ZM51.2193 75.6089C51.2193 77.6401 49.5631 79.2964 47.5318 79.2964H10.8288C8.7976 79.2964 7.1413 77.6402 7.1413 75.6089V71.0933H51.2193V75.6089Z" fill="black"/>
</svg>
