<svg width="90" height="83" viewBox="0 0 90 83" fill="none" xmlns="http://www.w3.org/2000/svg">
<path d="M88.5113 31.0089L71.2653 13.7589C70.3512 12.8487 69.0895 12.3683 67.8005 12.4464C66.5075 12.5206 65.3122 13.1456 64.5153 14.1612L61.7301 17.7237C61.6754 11.7003 58.5856 6.1147 53.5113 2.8687C48.4371 -0.373495 42.0663 -0.830495 36.5773 1.64991C31.0929 4.13041 27.2296 9.2163 26.3113 15.1699L25.8152 14.5449C25.0183 13.5293 23.823 12.9043 22.534 12.8301C21.2449 12.752 19.9832 13.2324 19.0692 14.1465L1.82321 31.3885C0.913049 32.2987 0.436509 33.5565 0.506809 34.8416C0.581027 36.1268 1.19822 37.3221 2.20601 38.1228L9.23331 43.7126C8.58878 45.1149 8.88175 46.7712 9.9755 47.8571L13.581 51.4626V51.4665C14.6279 52.5095 16.2021 52.8298 17.5732 52.2751C18.0888 52.8024 18.8505 53.5915 19.6943 54.4782L16.9873 57.1852C15.6201 58.5524 15.2139 60.6071 15.9521 62.3922C16.6904 64.1774 18.4326 65.3414 20.3662 65.3414C20.4443 65.3414 20.5185 65.3375 20.5967 65.3336V65.568C20.5967 66.8375 21.1006 68.0524 21.999 68.9469C22.8935 69.8414 24.1084 70.3453 25.374 70.3414H25.6083C25.5458 71.6461 26.0185 72.9195 26.9208 73.8687C27.8193 74.814 29.0692 75.3492 30.3739 75.3492H30.6083C30.5146 77.3219 31.6435 79.1461 33.4481 79.9469C35.2489 80.7476 37.3622 80.3531 38.7567 78.9586L39.9598 77.7594C42.0418 79.861 43.5457 81.3024 43.6786 81.4274H43.6747C45.7059 83.4391 48.9794 83.4352 50.9989 81.4118C51.9403 80.4899 52.4442 79.2126 52.3895 77.8962C54.1395 78.7868 56.2606 78.4626 57.6668 77.0915C58.7059 76.0993 59.2996 74.7243 59.3074 73.2868C60.0496 73.6383 60.8582 73.8297 61.6785 73.8532C62.8855 73.8688 64.0418 73.3844 64.8777 72.5173C66.0457 71.3298 66.5535 69.6423 66.2332 68.0095C67.8426 68.2165 69.4559 67.6579 70.5965 66.5017C72.6707 64.4275 72.6785 61.0603 70.6082 58.9783L69.1199 57.4041L73.1043 51.9353C73.3973 52.0095 73.702 52.0486 74.0067 52.0486C74.9832 52.0525 75.9208 51.6618 76.6122 50.9705L80.2177 47.365C81.2607 46.322 81.581 44.7556 81.0302 43.3845L88.124 37.7439C89.1318 36.9431 89.749 35.7478 89.8232 34.4627C89.8974 33.1775 89.4169 31.9197 88.5068 31.0096L88.5113 31.0089ZM43.9173 2.57891C47.9837 2.57891 51.8821 4.1922 54.7613 7.0672C57.6363 9.9461 59.2496 13.8445 59.2496 17.9112C59.2496 21.9776 57.6363 25.88 54.7613 28.7552C51.8824 31.6302 47.984 33.2435 43.9173 33.2435C39.8506 33.2435 35.9525 31.6302 33.0733 28.7552C30.1983 25.8802 28.585 21.9779 28.585 17.9112C28.5889 13.8448 30.2061 9.9503 33.0811 7.0752C35.9561 4.2001 39.8508 2.58281 43.9173 2.57891ZM2.9793 34.6999C2.94024 34.1179 3.15899 33.5476 3.57305 33.1374L20.823 15.8914C21.2371 15.4812 21.8074 15.2625 22.3895 15.2977C22.9715 15.3328 23.5105 15.6141 23.8699 16.0711L26.1316 18.9383V18.9422C26.2527 21.0399 26.7488 23.1024 27.5926 25.0281L10.8225 41.7981L3.75615 36.1731V36.177C3.29521 35.8176 3.01445 35.282 2.9793 34.6999ZM15.3343 49.7119L11.7288 46.1064C11.2561 45.6337 11.2561 44.8681 11.7288 44.3955L28.8028 27.3255C30.1466 29.4739 31.9278 31.3138 34.0333 32.7239L17.0413 49.7119C16.8147 49.9385 16.5061 50.0674 16.1858 50.0674C15.8655 50.0674 15.5609 49.9385 15.3343 49.7119ZM18.7406 62.1889C17.8461 61.2905 17.8461 59.8373 18.7406 58.9389L24.9789 52.7006C25.8773 51.8022 27.3305 51.8022 28.2289 52.7006C29.1273 53.599 29.1273 55.0561 28.2289 55.9506L21.9945 62.185V62.1889C21.0961 63.0874 19.639 63.0873 18.7406 62.1889ZM25.3734 67.8725C24.4437 67.8725 23.6078 67.31 23.2523 66.4506C22.8968 65.5912 23.0921 64.6029 23.7484 63.9467L29.6429 58.0522H29.6468C30.5452 57.1694 31.9906 57.1772 32.8812 58.0678C33.7718 58.9624 33.7757 60.4037 32.8968 61.3022L32.3734 61.8257L26.9984 67.1929C26.5687 67.6265 25.9828 67.8686 25.3734 67.8725ZM30.3734 72.8725C29.4437 72.8725 28.6078 72.31 28.2523 71.4506C27.8968 70.5912 28.0921 69.6029 28.7484 68.9467L28.9984 68.6967L33.4672 64.224L34.3578 63.3334C34.7875 62.8959 35.3734 62.6459 35.9867 62.642C36.6039 62.642 37.1937 62.8842 37.6273 63.3178C38.0609 63.7513 38.3031 64.3412 38.2992 64.9545C38.2953 65.5677 38.0492 66.1537 37.6078 66.5834L31.9984 72.1928C31.5687 72.6263 30.9867 72.8725 30.3734 72.8725ZM37.0023 77.2045L37.0062 77.2006C36.1078 78.099 34.6507 78.099 33.7523 77.2006C32.8539 76.3061 32.8539 74.849 33.7523 73.9506L39.1156 68.5873C39.5453 68.1498 40.1312 67.8998 40.7484 67.8959C41.3617 67.8959 41.9515 68.1381 42.3851 68.5717C42.8187 69.0053 43.0609 69.5951 43.057 70.2084C43.0531 70.8217 42.807 71.4076 42.3656 71.8373L37.0023 77.2045ZM68.8463 64.7515C68.319 65.2788 67.6002 65.5718 66.8541 65.564C66.1041 65.5562 65.3932 65.2476 64.8775 64.7085L57.6666 57.4937C57.1783 57.0289 56.4088 57.0367 55.9322 57.5133C55.4556 57.9898 55.4478 58.7594 55.9127 59.2477L63.0299 66.3649C63.3228 66.8492 64.651 69.2438 63.1275 70.7672C62.7681 71.1578 62.2603 71.3804 61.7291 71.3765H61.7096C60.2448 71.3648 58.5299 69.9312 57.9987 69.3804L57.9831 69.3648L53.3229 64.7086C52.8385 64.2242 52.0534 64.2242 51.569 64.7086C51.0846 65.193 51.0846 65.9781 51.569 66.4625L56.1432 71.0367C57.1158 72.3375 57.0182 74.15 55.9127 75.3375C54.1432 77.107 51.0455 74.0875 51.0182 74.0602L48.4909 71.5329L48.487 71.5368C48.0026 71.0524 47.2175 71.0485 46.7331 71.5329C46.2487 72.0173 46.2487 72.8024 46.7331 73.2868L49.1745 75.7282C49.4557 76.1696 50.6472 78.2594 49.2448 79.6618C48.737 80.1696 48.0456 80.4548 47.3268 80.4548C46.612 80.4548 45.9206 80.1696 45.4127 79.6618L45.3932 79.6423C45.3775 79.6267 43.862 78.1735 41.7057 76.0056L44.1237 73.5915C45.4909 72.2243 45.901 70.1696 45.1589 68.3845C44.4206 66.5993 42.6784 65.4353 40.7487 65.4353H40.7409C40.8776 64.0994 40.4401 62.7673 39.5417 61.7673C38.6432 60.7673 37.362 60.1931 36.0183 60.1892C36.1628 58.8533 35.7409 57.5173 34.8542 56.5134C33.9635 55.5056 32.6901 54.9196 31.3503 54.9001C31.5963 52.8767 30.53 50.9235 28.698 50.029C26.866 49.1384 24.6707 49.5095 23.2332 50.947L21.448 52.7243C20.7058 51.9469 20.0261 51.2438 19.5261 50.7282L36.2641 33.9942C36.768 34.2324 37.2836 34.4512 37.811 34.6465C36.229 39.2051 36.5024 48.9585 36.518 49.4235C36.5414 50.5602 37.1664 51.5954 38.1625 52.1423C39.0843 52.6345 40.2016 52.5876 41.0805 52.0212C44.7055 49.7439 46.6 47.7634 46.8852 45.9665C47.1117 44.529 49.936 43.2595 51.7758 42.6853L68.8228 60.6933L68.8462 60.7168V60.7207C69.9595 61.834 69.9596 63.6383 68.8463 64.7515ZM53.0653 40.4355C52.7567 40.1113 52.2997 39.9785 51.8661 40.0839C51.1669 40.2597 45.0184 41.8925 44.4403 45.58C44.3231 46.334 43.0341 47.873 39.7645 49.9198V49.9238C39.6395 50.0175 39.4676 50.0331 39.3309 49.955C39.1161 49.8261 38.9911 49.5956 38.995 49.3495C38.8387 44.1972 39.2528 37.8415 40.1864 35.3335V35.3296C41.413 35.5913 42.663 35.7242 43.913 35.7242C47.2763 35.7281 50.5692 34.7749 53.4052 32.9742L71.0182 50.5872L67.3854 55.5716L53.0653 40.4355ZM78.4673 45.6113L74.8618 49.2168C74.3891 49.6895 73.6235 49.6895 73.1509 49.2168L55.4239 31.4938C57.3731 29.8376 58.9473 27.7868 60.0372 25.4743L78.4672 43.9043C78.6938 44.1309 78.8188 44.4356 78.8188 44.7559C78.8188 45.0762 78.6939 45.3847 78.4673 45.6113ZM87.354 34.3223C87.3267 34.9043 87.0454 35.4434 86.5884 35.8028L79.5064 41.4356L60.9984 22.9356C61.0413 22.7911 61.0804 22.6504 61.1195 22.5059L66.4593 15.6934C66.8186 15.2364 67.3577 14.9551 67.9398 14.92C68.5218 14.8848 69.0921 15.1036 69.5062 15.5137L86.7562 32.7597C87.1702 33.1699 87.3891 33.7403 87.354 34.3223ZM38.354 26.17C39.979 27.7833 42.5923 27.795 44.2329 26.2013L54.2409 16.4552C55.0651 15.8302 55.5768 14.881 55.655 13.8497C55.7292 12.8185 55.3581 11.8067 54.6355 11.0685C53.9167 10.3302 52.9089 9.93565 51.8777 9.98645C50.8465 10.0373 49.8855 10.5333 49.241 11.3381L41.3348 19.0373L38.5575 16.2639H38.5536C37.6083 15.2209 36.1708 14.7756 34.7997 15.1037C33.5966 15.4279 32.6591 16.3693 32.3349 17.5685C32.0068 18.9396 32.456 20.381 33.499 21.3263L38.354 26.17ZM34.9907 17.7598C35.1782 17.5723 35.4321 17.4668 35.6977 17.4668C36.1274 17.4942 36.5258 17.6934 36.8032 18.0176L40.4477 21.6543H40.4516C40.9282 22.1309 41.7055 22.1387 42.1899 21.666L50.9751 13.1152C51.8072 12.3066 52.5103 12.4395 52.8657 12.8027C53.2212 13.166 53.3423 13.873 52.5142 14.6777L42.5022 24.4355C41.8342 25.084 40.7678 25.0762 40.1077 24.4199L35.2561 19.5761H35.2522C34.9358 19.2988 34.7365 18.9081 34.6975 18.4863C34.6936 18.2129 34.7993 17.9512 34.9907 17.7598Z" fill="white" fill-opacity="1"/>
<defs>
<linearGradient id="paint0_linear_132_965" x1="0.5" y1="34.199" x2="91.9451" y2="55.7654" gradientUnits="userSpaceOnUse">
<stop stop-color="#4D4D4D" stop-opacity="0.75"/>
<stop offset="1"/>
</linearGradient>
</defs>
</svg>
