<svg width="56" height="93" viewBox="0 0 56 93" fill="none" xmlns="http://www.w3.org/2000/svg">
<path d="M27.8048 77.0509C20.6173 77.0509 13.8398 76.1212 8.7188 74.4415C3.0157 72.5665 0 69.9649 0 66.922V10.504C0.007813 4.7032 4.7031 0.008 10.5 0H45.109C50.9059 0.007813 55.601 4.7031 55.609 10.504V66.918C55.609 69.9571 52.5934 72.5586 46.8902 74.4375C41.7691 76.1211 34.9928 77.0509 27.8048 77.0509ZM10.4998 2.9299C6.3201 2.93381 2.9334 6.3205 2.9295 10.5041V66.9181C2.9295 69.9259 12.3904 74.1212 27.8045 74.1212C43.2186 74.1212 52.6795 69.9259 52.6795 66.922V10.504C52.6756 6.3204 49.2889 2.9337 45.1092 2.9298L10.4998 2.9299Z" fill="black"/>
<path d="M27.8048 85.77C21.6564 85.77 15.8598 85.2739 11.4888 84.3716C6.16457 83.27 3.67627 81.7622 3.67627 79.6294V71.3403C3.67627 70.5317 4.33252 69.8755 5.14107 69.8755C5.94966 69.8755 6.60587 70.5317 6.60587 71.3403V79.5044C6.91056 79.8755 8.49647 80.8482 12.9731 81.6763C17.0434 82.4263 22.3051 82.8482 27.7931 82.8482C33.2811 82.8482 38.5471 82.4341 42.6131 81.6763C47.0897 80.8482 48.6756 79.8755 48.9803 79.5044L48.9881 71.3403C48.9881 70.5317 49.6443 69.8755 50.4529 69.8755C51.2615 69.8755 51.9177 70.5317 51.9177 71.3403V79.6294C51.9177 81.7622 49.4372 83.27 44.1052 84.3716C39.7458 85.2739 33.9538 85.77 27.8048 85.77Z" fill="black"/>
<path d="M33.9609 29.8948H21.6489C17.9419 29.8909 14.9419 26.8909 14.938 23.1878V1.4648C14.938 0.65621 15.5942 0 16.4028 0H39.2078C39.5945 0 39.9695 0.15625 40.243 0.42969C40.5164 0.70313 40.6727 1.07813 40.6727 1.46489V23.1879C40.6688 26.891 37.6679 29.8909 33.9609 29.8948ZM17.8669 2.9298V23.1878C17.8708 25.2737 19.5583 26.9651 21.6481 26.9651H33.9641H33.9602C36.05 26.9651 37.7375 25.2737 37.7414 23.1878V2.9298H17.8669Z" fill="black"/>
<path d="M27.8049 24.4569C24.7229 24.4569 22.6604 23.4686 21.6721 21.5272C19.1252 16.4842 25.8518 7.08916 26.633 6.03516C26.9104 5.66016 27.3479 5.4375 27.8127 5.4375C28.2776 5.4375 28.7151 5.66016 28.9924 6.03516C29.7737 7.08986 36.4924 16.4802 33.9455 21.5192C32.9494 23.4684 30.8869 24.4569 27.8049 24.4569ZM27.8049 9.49586C25.4455 13.1756 23.219 18.0897 24.2893 20.1989C24.7346 21.0817 25.9221 21.527 27.8049 21.527C29.6916 21.527 30.8752 21.0817 31.3205 20.1989C32.3908 18.0895 30.1643 13.1833 27.8049 9.49586Z" fill="black"/>
<path d="M16.9138 48.4258C13.82 48.4258 11.0271 46.5625 9.84349 43.7031C8.65989 40.8437 9.31615 37.5547 11.5037 35.3633C13.6912 33.1758 16.9842 32.5195 19.8435 33.7071C22.7029 34.8907 24.5662 37.6798 24.5662 40.7774C24.5623 45.0001 21.1364 48.4219 16.9138 48.4258ZM16.9138 36.0547C15.0036 36.0547 13.281 37.207 12.5505 38.9688C11.82 40.7344 12.2224 42.7657 13.5739 44.1172C14.9255 45.4688 16.9567 45.8711 18.7223 45.1406C20.4879 44.4102 21.6364 42.6875 21.6364 40.7773C21.6325 38.1679 19.5193 36.0586 16.9138 36.0547Z" fill="black"/>
<path d="M16.9138 40.4728C16.1052 40.4728 15.449 39.8166 15.449 39.008V34.59C15.449 33.7815 16.1052 33.1252 16.9138 33.1252C17.7223 33.1252 18.3786 33.7815 18.3786 34.59V39.008C18.3786 39.3948 18.2262 39.7698 17.9489 40.0432C17.6754 40.3206 17.3005 40.4728 16.9138 40.4728Z" fill="black"/>
<path d="M38.6958 48.4259C35.602 48.4298 32.8091 46.5665 31.6255 43.7071C30.438 40.8477 31.0943 37.5548 33.2817 35.3633C35.4692 33.1758 38.7622 32.5195 41.6215 33.7071C44.4809 34.8907 46.3442 37.6798 46.3442 40.7735V40.7774C46.3403 45.0001 42.9184 48.422 38.6958 48.4259ZM38.6958 36.0548C36.7856 36.0548 35.063 37.2032 34.3325 38.9689C33.5981 40.7345 34.0044 42.7658 35.3559 44.1173C36.7036 45.4689 38.7387 45.8712 40.5004 45.1407C42.266 44.4103 43.4184 42.6876 43.4145 40.7774C43.4145 38.168 41.3013 36.0587 38.6958 36.0548Z" fill="black"/>
<path d="M38.6958 40.4729C38.3091 40.4729 37.9341 40.3206 37.6606 40.0432C37.3833 39.7698 37.231 39.3948 37.231 39.008V34.59C37.231 33.7815 37.8872 33.1252 38.6958 33.1252C39.5043 33.1252 40.1606 33.7815 40.1606 34.59V39.008C40.1606 39.3948 40.0043 39.7698 39.7309 40.0432C39.4574 40.3167 39.0826 40.4729 38.6958 40.4729Z" fill="black"/>
<path d="M42.5158 65.0468H13.0938C11.0274 65.0429 9.35156 63.3671 9.35156 61.3007V57.7695C9.35156 55.6992 11.0274 54.0234 13.0938 54.0195H42.5158C44.5822 54.0234 46.258 55.6992 46.258 57.7656V61.3008C46.258 63.3672 44.5822 65.0429 42.5158 65.0468ZM13.0938 56.9491C12.6445 56.9491 12.2813 57.3163 12.2813 57.7655V61.3007C12.2813 61.75 12.6445 62.1172 13.0938 62.1172H42.5158C42.965 62.1172 43.3283 61.75 43.3283 61.3007V57.7695C43.3283 57.3164 42.965 56.9492 42.5158 56.9492L13.0938 56.9491Z" fill="black"/>
<path d="M18.9218 92.7739H11.1445C10.3359 92.7739 9.67969 92.1177 9.67969 91.3091V82.8013C9.67969 81.9888 10.3359 81.3325 11.1445 81.3325C11.953 81.3325 12.6093 81.9888 12.6093 82.8013V89.8443H17.4531V83.9341C17.4531 83.1255 18.1093 82.4693 18.9179 82.4693C19.7265 82.4693 20.3827 83.1256 20.3827 83.9341V91.3091C20.3827 92.1177 19.7303 92.77 18.9218 92.7739Z" fill="black"/>
<path d="M44.4648 92.7739H36.6875C35.8789 92.77 35.2266 92.1177 35.2266 91.3091V83.9341C35.2266 83.1255 35.8828 82.4693 36.6914 82.4693C37.5 82.4693 38.1562 83.1256 38.1562 83.9341V89.8443H43V82.8013C43 81.9888 43.6562 81.3325 44.4648 81.3325C45.2733 81.3325 45.9296 81.9888 45.9296 82.8013V91.3091C45.9296 91.6958 45.7733 92.0708 45.4999 92.3443C45.2264 92.6178 44.8515 92.7739 44.4648 92.7739Z" fill="black"/>
</svg>
