<svg width="18" height="19" viewBox="0 0 18 19" fill="none" xmlns="http://www.w3.org/2000/svg">
<path fill-rule="evenodd" clip-rule="evenodd" d="M13 0.520508H5C2.23858 0.520508 0 2.75909 0 5.52051V13.5205C0 16.2819 2.23858 18.5205 5 18.5205H13C15.7614 18.5205 18 16.2819 18 13.5205V5.52051C18 2.75909 15.7614 0.520508 13 0.520508ZM16.25 13.5205C16.2445 15.3131 14.7926 16.765 13 16.7705H5C3.20735 16.765 1.75549 15.3131 1.75 13.5205V5.52051C1.75549 3.72786 3.20735 2.276 5 2.27051H13C14.7926 2.276 16.2445 3.72786 16.25 5.52051V13.5205ZM13.75 5.77051C14.3023 5.77051 14.75 5.32279 14.75 4.77051C14.75 4.21823 14.3023 3.77051 13.75 3.77051C13.1977 3.77051 12.75 4.21823 12.75 4.77051C12.75 5.32279 13.1977 5.77051 13.75 5.77051ZM9 5.02051C6.51472 5.02051 4.5 7.03523 4.5 9.52051C4.5 12.0058 6.51472 14.0205 9 14.0205C11.4853 14.0205 13.5 12.0058 13.5 9.52051C13.5027 8.32621 13.0294 7.18008 12.1849 6.33559C11.3404 5.4911 10.1943 5.01785 9 5.02051ZM6.25 9.52051C6.25 11.0393 7.4812 12.2705 9 12.2705C10.5188 12.2705 11.75 11.0393 11.75 9.52051C11.75 8.00171 10.5188 6.77051 9 6.77051C7.4812 6.77051 6.25 8.00171 6.25 9.52051Z" fill="black"/>
</svg>
