<svg width="60" height="60" viewBox="0 0 60 60" fill="none" xmlns="http://www.w3.org/2000/svg">
<path d="M59 18H49.82C49.6124 17.4173 49.2304 16.9126 48.7258 16.5548C48.2212 16.1969 47.6186 16.0032 47 16H45C44.3814 16.0032 43.7788 16.1969 43.2742 16.5548C42.7696 16.9126 42.3876 17.4173 42.18 18H41C36.6392 18.0077 32.4479 19.6899 29.2918 22.6991C26.1356 25.7082 24.2556 29.8145 24.04 34.17C23.4468 34.3692 22.931 34.7494 22.565 35.257C22.1991 35.7647 22.0015 36.3742 22 37V39C22.0032 39.6186 22.1969 40.2212 22.5548 40.7258C22.9126 41.2304 23.4173 41.6124 24 41.82V43C24 44.3261 23.4732 45.5979 22.5355 46.5355C21.5979 47.4732 20.3261 48 19 48C17.6739 48 16.4021 47.4732 15.4645 46.5355C14.5268 45.5979 14 44.3261 14 43V7.82C14.5827 7.61244 15.0874 7.23036 15.4452 6.72578C15.8031 6.22119 15.9968 5.6186 16 5V3C15.9976 2.20508 15.6808 1.4434 15.1187 0.881302C14.5566 0.319207 13.7949 0.00237409 13 0H3C2.20508 0.00237409 1.4434 0.319207 0.881302 0.881302C0.319207 1.4434 0.00237409 2.20508 0 3V5C0.00318625 5.6186 0.196891 6.22119 0.554754 6.72578C0.912616 7.23036 1.41726 7.61244 2 7.82V43C2 47.5087 3.79107 51.8327 6.97919 55.0208C10.1673 58.2089 14.4913 60 19 60C23.5087 60 27.8327 58.2089 31.0208 55.0208C34.2089 51.8327 36 47.5087 36 43V41.82C36.5827 41.6124 37.0874 41.2304 37.4452 40.7258C37.8031 40.2212 37.9968 39.6186 38 39V37C37.9982 36.3957 37.814 35.806 37.4714 35.3081C37.1288 34.8103 36.6438 34.4276 36.08 34.21C36.2657 33.0379 36.8629 31.9704 37.7646 31.1988C38.6662 30.4273 39.8133 30.0023 41 30H42.18C42.3876 30.5827 42.7696 31.0874 43.2742 31.4452C43.7788 31.8031 44.3814 31.9968 45 32H47C47.6186 31.9968 48.2212 31.8031 48.7258 31.4452C49.2304 31.0874 49.6124 30.5827 49.82 30H59C59.2652 30 59.5196 29.8946 59.7071 29.7071C59.8946 29.5196 60 29.2652 60 29V19C60 18.7348 59.8946 18.4804 59.7071 18.2929C59.5196 18.1054 59.2652 18 59 18ZM18 50C18.3956 50 18.7822 50.1173 19.1111 50.3371C19.44 50.5568 19.6964 50.8692 19.8478 51.2346C19.9991 51.6001 20.0387 52.0022 19.9616 52.3902C19.8844 52.7781 19.6939 53.1345 19.4142 53.4142C19.1345 53.6939 18.7781 53.8844 18.3902 53.9616C18.0022 54.0387 17.6001 53.9991 17.2346 53.8478C16.8692 53.6964 16.5568 53.44 16.3371 53.1111C16.1173 52.7822 16 52.3956 16 52C16.0016 51.4701 16.2128 50.9623 16.5875 50.5875C16.9623 50.2128 17.4701 50.0016 18 50ZM2 5V3C2 2.73478 2.10536 2.48043 2.29289 2.29289C2.48043 2.10536 2.73478 2 3 2H13C13.2652 2 13.5196 2.10536 13.7071 2.29289C13.8946 2.48043 14 2.73478 14 3V5C14 5.26522 13.8946 5.51957 13.7071 5.70711C13.5196 5.89464 13.2652 6 13 6H3C2.73478 6 2.48043 5.89464 2.29289 5.70711C2.10536 5.51957 2 5.26522 2 5ZM4.17 45.17C4.06255 44.4515 4.00575 43.7264 4 43V8H12V42.16C11.719 42.0878 11.4301 42.0509 11.14 42.05C9.23 42.05 8.29 43.37 7.54 44.42C6.84 45.4 6.4 45.95 5.57 45.95C5.29132 45.9412 5.01879 45.8658 4.77522 45.7301C4.53165 45.5944 4.32412 45.4023 4.17 45.17ZM13 56C12.8022 56 12.6089 55.9414 12.4444 55.8315C12.28 55.7216 12.1518 55.5654 12.0761 55.3827C12.0004 55.2 11.9806 54.9989 12.0192 54.8049C12.0578 54.6109 12.153 54.4327 12.2929 54.2929C12.4327 54.153 12.6109 54.0578 12.8049 54.0192C12.9989 53.9806 13.2 54.0004 13.3827 54.0761C13.5654 54.1518 13.7216 54.28 13.8315 54.4444C13.9414 54.6089 14 54.8022 14 55C14 55.2652 13.8946 55.5196 13.7071 55.7071C13.5196 55.8946 13.2652 56 13 56ZM13 52C12.2095 52 11.451 52.3119 10.8892 52.868C10.3275 53.4242 10.0079 54.1796 10 54.97C7.6044 53.1746 5.80326 50.7011 4.83 47.87C5.07303 47.9235 5.32116 47.9503 5.57 47.95C7.47 47.95 8.41 46.64 9.16 45.58C9.86 44.6 10.3 44.05 11.14 44.05C11.5125 44.045 11.8732 44.1807 12.15 44.43C12.3493 45.3726 12.7408 46.264 13.3 47.0486C13.8592 47.8331 14.574 48.494 15.4 48.99C14.9625 49.3603 14.6107 49.8213 14.369 50.341C14.1273 50.8608 14.0014 51.4268 14 52C14 52.07 14.02 52.13 14.02 52.19C13.6943 52.0656 13.3487 52.0012 13 52ZM19 58C17.5748 57.9972 16.1573 57.7918 14.79 57.39C15.4253 56.914 15.846 56.2056 15.96 55.42C16.5743 55.796 17.2798 55.9966 18 56C18.3419 55.9964 18.6818 55.946 19.01 55.85C19.01 55.9 19 55.95 19 56C19.0003 56.4399 19.1469 56.8673 19.4166 57.2148C19.6863 57.5624 20.0639 57.8105 20.49 57.92C19.995 57.9718 19.4977 57.9985 19 58ZM22.08 57.68C22.4131 57.4668 22.6754 57.1594 22.8333 56.7968C22.9913 56.4342 23.0379 56.0328 22.9671 55.6437C22.8964 55.2546 22.7115 54.8953 22.436 54.6115C22.1605 54.3277 21.8069 54.1323 21.42 54.05C21.8324 53.379 22.033 52.5993 21.9955 51.8126C21.9581 51.0259 21.6843 50.2688 21.21 49.64C22.658 49.15 23.9098 48.2068 24.78 46.95C24.93 47.15 25.09 47.36 25.25 47.58C26 48.64 26.94 49.95 28.85 49.95C30.76 49.95 31.7 48.63 32.45 47.58C32.7595 47.0862 33.1559 46.6525 33.62 46.3C32.9859 49.1017 31.5617 51.6628 29.5164 53.6798C27.471 55.6968 24.8903 57.085 22.08 57.68ZM34 43C34 43.37 33.97 43.73 33.94 44.09C33.2827 44.2273 32.6636 44.5071 32.1263 44.9096C31.5889 45.3122 31.1464 45.8278 30.83 46.42C30.13 47.4 29.69 47.95 28.85 47.95C28.01 47.95 27.58 47.4 26.88 46.42C26.5381 45.9123 26.1425 45.4429 25.7 45.02C25.8968 44.3646 25.9979 43.6843 26 43V42H34V43ZM36 39C36 39.2652 35.8946 39.5196 35.7071 39.7071C35.5196 39.8946 35.2652 40 35 40H25C24.7348 40 24.4804 39.8946 24.2929 39.7071C24.1054 39.5196 24 39.2652 24 39V37C24 36.7348 24.1054 36.4804 24.2929 36.2929C24.4804 36.1054 24.7348 36 25 36H35C35.2652 36 35.5196 36.1054 35.7071 36.2929C35.8946 36.4804 36 36.7348 36 37V39ZM42 28H41C39.3182 28.002 37.6932 28.6094 36.4225 29.7112C35.1518 30.813 34.3203 32.3354 34.08 34H26.05C26.307 30.2075 27.9928 26.6535 30.7674 24.0553C33.542 21.457 37.1988 20.0078 41 20H42V28ZM48 29C48 29.2652 47.8946 29.5196 47.7071 29.7071C47.5196 29.8946 47.2652 30 47 30H45C44.7348 30 44.4804 29.8946 44.2929 29.7071C44.1054 29.5196 44 29.2652 44 29V19C44 18.7348 44.1054 18.4804 44.2929 18.2929C44.4804 18.1054 44.7348 18 45 18H47C47.2652 18 47.5196 18.1054 47.7071 18.2929C47.8946 18.4804 48 18.7348 48 19V29ZM58 28H50V20H58V28Z" fill="black"/>
<path d="M26 52H24V54H26V52Z" fill="black"/>
<path d="M10 49H8V51H10V49Z" fill="black"/>
</svg>
