<svg width="748" height="352" viewBox="0 0 748 352" fill="none" xmlns="http://www.w3.org/2000/svg">
<path d="M24.0245 210.578H58.0045C60.2325 210.578 62.1045 211.472 63.6139 213.259C65.1245 215.046 65.8805 217.19 65.8805 219.691C65.8805 222.122 65.1245 224.195 63.6139 225.91C62.1045 227.626 60.3405 228.484 58.3285 228.484H24.0245V210.578ZM24.0245 246.283H65.8805C71.8485 246.283 76.4859 244.436 79.7952 240.739C83.1019 237.043 84.7565 230.028 84.7565 219.692C84.7565 209.502 83.0845 202.468 79.7405 198.592C76.3965 194.716 71.7752 192.778 65.8805 192.778H5.14722V262.787H24.0245V246.283Z" fill="#00ADEE"/>
<path d="M169.437 246.606H120.354V192.778H101.477V262.788H169.437V246.606Z" fill="#00ADEE"/>
<path d="M185.508 192.778V246.632C185.508 251.085 187.378 254.89 191.118 258.049C194.856 261.208 199.279 262.788 204.386 262.788H251.094C256.343 262.788 260.803 261.208 264.471 258.049C268.139 254.89 269.972 251.085 269.972 246.632V192.778H251.094V236.594C251.094 239.394 250.051 241.762 247.966 243.7C245.879 245.64 243.328 246.606 240.307 246.606H215.174C212.152 246.606 209.599 245.64 207.514 243.7C205.427 241.762 204.386 239.394 204.386 236.594V192.778H185.508Z" fill="#00ADEE"/>
<path d="M288.526 262.787H307.403V203.566L334.803 262.787H350.875L378.276 204.105V262.787H397.152V192.778H363.928L342.892 237.761L321.966 192.778H288.526V262.787Z" fill="#00ADEE"/>
<path d="M435.23 246.606V234.417H474.28C475.933 234.417 477.301 234.993 478.378 236.142C479.458 237.294 479.997 238.696 479.997 240.35C479.997 242.077 479.421 243.55 478.27 244.773C477.12 245.997 475.79 246.606 474.28 246.606H435.23ZM435.23 208.96H470.828C472.697 208.96 474.242 209.493 475.468 210.562C476.689 211.632 477.301 212.949 477.301 214.517C477.301 216.154 476.652 217.545 475.36 218.685C474.064 219.824 472.554 220.394 470.828 220.394H435.23V208.96ZM493.05 259.12C496.357 256.676 498.012 253.474 498.012 249.52V242.292C498.012 238.122 497.04 234.597 495.098 231.72C493.158 228.845 490.64 227.406 487.548 227.406C490.856 225.614 493.121 223.802 494.344 221.974C495.566 220.146 496.178 217.406 496.178 213.748V206.973C496.178 203.032 494.722 199.681 491.809 196.92C488.896 194.158 485.39 192.778 481.292 192.778H416.353V262.788H477.301C484.49 262.788 489.741 261.566 493.05 259.12Z" fill="#00ADEE"/>
<path d="M535.552 192.778H516.673V262.787H535.552V192.778Z" fill="#00ADEE"/>
<path d="M626.162 249.303L587.868 192.778H555.506V262.787H574.385V206.478L612.357 262.787H645.041V192.778H626.162V249.303Z" fill="#00ADEE"/>
<path d="M685.547 211.433C687.596 209.785 690.167 208.96 693.26 208.96H722.385C724.111 208.96 725.621 209.607 726.916 210.901C728.209 212.195 728.857 213.705 728.857 215.432H747.735V208.96C747.735 204.501 745.685 200.691 741.585 197.524C737.487 194.361 732.596 192.779 726.916 192.779H682.472C677.223 192.779 672.764 194.359 669.096 197.517C665.428 200.677 663.595 204.483 663.595 208.933V246.631C663.595 251.085 665.463 254.891 669.204 258.049C672.943 261.208 677.364 262.788 682.472 262.788H726.916C732.741 262.788 737.667 261.207 741.693 258.041C745.721 254.877 747.735 251.067 747.735 246.607V236.575V222.552H703.723V236.575H728.857C728.857 239.308 728.191 241.663 726.861 243.64C725.531 245.62 723.931 246.607 722.061 246.607H693.26C690.311 246.607 687.776 245.621 685.655 243.648C683.533 241.677 682.472 239.329 682.472 236.604V217.78C682.472 215.199 683.497 213.083 685.547 211.433Z" fill="#00ADEE"/>
<path d="M637.609 329.138H648.798C649.377 329.138 649.87 328.908 650.278 328.448C650.685 327.99 650.888 327.428 650.888 326.767C650.888 326.163 650.705 325.638 650.344 325.192C649.98 324.747 649.537 324.523 649.016 324.523H637.609C637.144 324.523 636.738 324.754 636.389 325.214C636.041 325.674 635.866 326.234 635.866 326.895C635.866 327.499 636.033 328.024 636.368 328.47C636.701 328.916 637.114 329.138 637.609 329.138Z" fill="#00ADEE"/>
<path d="M0.00012207 291.103H213.555V285.277H0.00012207V291.103Z" fill="#808184"/>

<path d="M255.202 285.433L242.79 285.032C242.157 285.032 241.774 284.881 241.641 284.576C241.506 284.272 241.44 283.767 241.44 283.061C241.44 282.501 241.609 282.027 241.95 281.636C242.29 281.248 242.693 281.053 243.156 281.053H251.917C252.793 281.053 253.438 281.261 253.852 281.673C254.265 282.087 254.473 282.636 254.473 283.316H260.861V281.053C260.861 279.739 260.374 278.621 259.401 277.693C258.426 276.769 257.248 276.308 255.86 276.308H241.44C239.662 276.308 238.153 276.769 236.913 277.691C235.672 278.613 235.05 279.731 235.05 281.04V284.72C235.05 286.417 235.568 287.795 236.602 288.852C237.637 289.907 239.249 290.436 241.44 290.436L252.94 290.837C253.572 290.837 254.108 291.045 254.545 291.457C254.984 291.871 255.202 292.371 255.202 292.955C255.202 293.587 254.893 294.128 254.272 294.579C253.65 295.029 252.902 295.253 252.026 295.253H243.265C242.754 295.253 242.321 294.993 241.969 294.469C241.616 293.947 241.44 293.319 241.44 292.589L235.05 292.407V295.253C235.05 296.545 235.677 297.657 236.93 298.595C238.184 299.532 239.688 300.001 241.44 300.001H253.669C256.321 300.001 258.306 299.464 259.62 298.395C260.934 297.324 261.592 295.267 261.592 292.225C261.592 289.668 261.013 287.9 259.857 286.912C258.701 285.928 257.149 285.433 255.202 285.433Z" fill="#808184"/>
<path d="M272.47 300.001H296.747V294.525H278.859V290.4H295.724V285.652H278.859V281.782H296.747V276.308H272.47V300.001Z" fill="#808184"/>
<path d="M327.303 287.118C326.743 287.725 326.074 288.028 325.295 288.028H313.723V282.332H325.295C326.074 282.332 326.743 282.585 327.303 283.092C327.863 283.6 328.143 284.217 328.143 284.944C328.143 285.79 327.863 286.514 327.303 287.118ZM328.143 276.309H307.334V300.074H313.723V294.05H326.135C326.743 294.05 327.23 294.537 327.595 295.509C327.96 296.482 328.143 298.006 328.143 300.074H334.531C334.531 296.96 334.36 294.689 334.02 293.264C333.679 291.842 332.816 291.045 331.428 290.873C332.378 290.17 333.132 289.473 333.692 288.78C334.251 288.088 334.531 287.269 334.531 286.321V282.316C334.531 280.665 333.904 279.252 332.651 278.074C331.398 276.897 329.895 276.309 328.143 276.309Z" fill="#808184"/>
<path d="M360.014 295.327L350.741 276.308H343.658L355.195 300.001H364.87L376.441 276.308H369.322L360.014 295.327Z" fill="#808184"/>
<path d="M387.65 300H394.037V276.307H387.65V300Z" fill="#808184"/>
<path d="M429.084 276.308H411.56C409.784 276.308 408.276 276.841 407.035 277.912C405.792 278.98 405.172 280.269 405.172 281.775V294.532C405.172 296.04 405.804 297.329 407.071 298.396C408.335 299.467 409.834 300.001 411.56 300.001H429.084C430.86 300.001 432.371 299.464 433.612 298.393C434.852 297.324 435.474 296.035 435.474 294.524V291.128H429.084C429.084 292.053 428.724 292.849 428.007 293.519C427.29 294.191 426.432 294.524 425.434 294.524H415.212C414.214 294.524 413.355 294.191 412.638 293.524C411.92 292.855 411.56 292.06 411.56 291.139V284.769C411.56 283.893 411.908 283.177 412.602 282.62C413.295 282.063 414.166 281.781 415.212 281.781H425.434C426.455 281.781 427.32 282.071 428.026 282.649C428.731 283.227 429.084 283.923 429.084 284.74H435.474V281.759C435.474 280.256 434.839 278.972 433.575 277.907C432.31 276.839 430.812 276.308 429.084 276.308Z" fill="#808184"/>
<path d="M446.315 300.001H470.592V294.525H452.704V290.4H469.569V285.652H452.704V281.782H470.592V276.308H446.315V300.001Z" fill="#808184"/>
<path d="M501.148 285.433L488.735 285.032C488.103 285.032 487.72 284.881 487.585 284.576C487.453 284.272 487.385 283.767 487.385 283.061C487.385 282.501 487.556 282.027 487.897 281.636C488.236 281.248 488.639 281.053 489.101 281.053H497.863C498.739 281.053 499.384 281.261 499.797 281.673C500.211 282.087 500.417 282.636 500.417 283.316H506.807V281.053C506.807 279.739 506.32 278.621 505.347 277.693C504.373 276.769 503.192 276.308 501.805 276.308H487.385C485.609 276.308 484.1 276.769 482.859 277.691C481.617 278.613 480.997 279.731 480.997 281.04V284.72C480.997 286.417 481.513 287.795 482.548 288.852C483.583 289.907 485.195 290.436 487.385 290.436L498.885 290.837C499.517 290.837 500.053 291.045 500.492 291.457C500.929 291.871 501.148 292.371 501.148 292.955C501.148 293.587 500.839 294.128 500.217 294.579C499.597 295.029 498.848 295.253 497.972 295.253H489.211C488.699 295.253 488.267 294.993 487.915 294.469C487.561 293.947 487.385 293.319 487.385 292.589L480.997 292.407V295.253C480.997 296.545 481.623 297.657 482.877 298.595C484.129 299.532 485.633 300.001 487.385 300.001H499.616C502.268 300.001 504.251 299.464 505.565 298.395C506.88 297.324 507.537 295.267 507.537 292.225C507.537 289.668 506.959 287.9 505.803 286.912C504.647 285.928 503.095 285.433 501.148 285.433Z" fill="#808184"/>
<path d="M416.759 151.036C428.451 151.036 438.345 147.867 446.433 141.507C454.511 135.157 458.561 127.504 458.561 118.547V70.2561H451.392C452.053 71.7668 452.883 74.1175 452.932 76.9321C453.02 83.0255 449.761 87.2721 448.359 88.8121C444.073 93.5228 438.632 94.3721 436.5 94.5201L436.095 94.5495L435.689 94.5201C433.547 94.3721 428.116 93.5228 423.829 88.8121C422.427 87.2815 419.168 83.0348 419.256 76.9321C419.296 74.1175 420.125 71.7668 420.787 70.2561H375.496V67.8108C375.496 65.2135 373.389 63.1081 370.792 63.1081C368.195 63.1081 366.089 65.2135 366.089 67.8108V103.592C366.089 106.191 368.195 108.296 370.792 108.296C373.389 108.296 375.496 106.191 375.496 103.592V98.4108H420.66C420.66 103.901 419.327 108.621 416.649 112.592C413.984 116.571 410.764 118.547 407.011 118.547H349.192C343.267 118.547 338.18 116.571 333.924 112.612C329.657 108.651 327.535 103.941 327.535 98.4708V60.6775C327.535 55.4935 329.589 51.2468 333.707 47.9388C336.333 45.8148 361.467 44.3935 413.183 43.6228C413.973 40.5815 416.176 38.0721 419.029 36.7695V29.9548C419.029 27.5161 419.484 25.1468 420.393 22.8948C423.176 15.9721 431.671 10.6388 441.615 10.4815H327.535C316.988 10.4815 308.041 13.6508 300.675 19.9908C293.317 26.3415 289.633 33.9748 289.633 42.9121V118.605C289.633 127.543 293.387 135.187 300.892 141.527C308.397 147.867 317.275 151.036 327.535 151.036H416.759Z" fill="#808184"/>
</svg>
