<svg width="600" height="314" viewBox="0 0 600 314" fill="none" xmlns="http://www.w3.org/2000/svg">
<path d="M19.2749 219.722H46.5413C48.3291 219.722 49.8312 220.655 51.0424 222.519C52.2546 224.383 52.8612 226.619 52.8612 229.228C52.8612 231.764 52.2546 233.926 51.0424 235.715C49.8312 237.505 48.4158 238.4 46.8013 238.4H19.2749V219.722ZM19.2749 256.966H52.8612C57.6501 256.966 61.3712 255.039 64.0267 251.183C66.68 247.328 68.0078 240.011 68.0078 229.23C68.0078 218.6 66.6661 211.264 63.9828 207.221C61.2995 203.178 57.5912 201.155 52.8612 201.155H4.1272V274.181H19.2749V256.966Z" fill="#00ADEE"/>
<path d="M135.962 257.303H96.5771V201.156H81.4294V274.181H135.962V257.303Z" fill="#00ADEE"/>
<path d="M148.854 201.156V257.329C148.854 261.974 150.354 265.944 153.355 269.238C156.355 272.533 159.904 274.181 164.001 274.181H201.481C205.693 274.181 209.272 272.533 212.215 269.238C215.159 265.944 216.63 261.974 216.63 257.329V201.156H201.481V246.859C201.481 249.78 200.644 252.25 198.971 254.271C197.297 256.294 195.25 257.303 192.826 257.303H172.658C170.234 257.303 168.185 256.294 166.511 254.271C164.837 252.25 164.001 249.78 164.001 246.859V201.156H148.854Z" fill="#00ADEE"/>
<path d="M231.52 274.181H246.667V212.409L268.654 274.181H281.55L303.538 212.971V274.181H318.684V201.156H292.025L275.145 248.076L258.353 201.156H231.52V274.181Z" fill="#00ADEE"/>
<path d="M349.243 257.303V244.589H380.577C381.904 244.589 383.002 245.189 383.866 246.388C384.733 247.59 385.165 249.052 385.165 250.777C385.165 252.579 384.703 254.115 383.779 255.391C382.856 256.667 381.789 257.303 380.577 257.303H349.243ZM349.243 218.035H377.807C379.307 218.035 380.547 218.591 381.531 219.706C382.511 220.822 383.002 222.196 383.002 223.831C383.002 225.539 382.481 226.99 381.444 228.179C380.404 229.367 379.193 229.962 377.807 229.962H349.243V218.035ZM395.639 270.355C398.293 267.806 399.62 264.467 399.62 260.342V252.802C399.62 248.454 398.84 244.776 397.283 241.775C395.726 238.777 393.705 237.276 391.224 237.276C393.878 235.407 395.696 233.517 396.677 231.61C397.658 229.703 398.149 226.845 398.149 223.029V215.962C398.149 211.851 396.981 208.356 394.643 205.476C392.305 202.596 389.493 201.156 386.204 201.156H334.095V274.181H383.002C388.771 274.181 392.984 272.907 395.639 270.355Z" fill="#00ADEE"/>
<path d="M429.737 201.156H414.589V274.181H429.737V201.156Z" fill="#00ADEE"/>
<path d="M502.449 260.116L471.721 201.155H445.753V274.181H460.902V215.446L491.372 274.181H517.598V201.155H502.449V260.116Z" fill="#00ADEE"/>
<path d="M550.099 220.614C551.743 218.895 553.806 218.035 556.288 218.035H579.659C581.044 218.035 582.256 218.709 583.295 220.06C584.333 221.409 584.853 222.984 584.853 224.785H600V218.035C600 213.384 598.356 209.409 595.066 206.106C591.777 202.807 587.853 201.156 583.295 201.156H547.632C543.42 201.156 539.842 202.804 536.899 206.099C533.955 209.395 532.484 213.364 532.484 218.007V257.328C532.484 261.975 533.983 265.944 536.985 269.239C539.985 272.533 543.533 274.181 547.632 274.181H583.295C587.969 274.181 591.921 272.532 595.152 269.23C598.385 265.93 600 261.955 600 257.303V246.839V232.212H564.684V246.839H584.853C584.853 249.69 584.318 252.146 583.251 254.209C582.183 256.274 580.899 257.303 579.399 257.303H556.288C553.922 257.303 551.888 256.275 550.186 254.217C548.483 252.161 547.632 249.712 547.632 246.869V227.235C547.632 224.542 548.455 222.335 550.099 220.614Z" fill="#00ADEE"/>
<path d="M351.967 64.9201C351.336 63.6823 350.537 61.8257 349.931 59.25C349.323 61.8257 348.524 63.6823 347.893 64.9201C346.64 67.3748 345.517 68.4221 343.519 72.2884C342.868 73.5499 342.598 74.1896 342.388 74.7543C342.033 75.7097 341.203 77.8515 341.174 80.4036C341.124 84.9139 343.236 88.0222 343.604 88.5466C346.057 92.0471 349.238 92.4296 349.931 92.4922C350.622 92.4296 353.804 92.0471 356.257 88.5466C356.625 88.0222 358.736 84.9139 358.686 80.4036C358.657 77.8515 357.828 75.7097 357.473 74.7543C357.262 74.1896 356.992 73.5499 356.342 72.2884C354.344 68.4221 353.221 67.3748 351.967 64.9201Z" fill="#00ADEE"/>
<path d="M478.067 110.625C478.067 114.241 477.14 117.33 475.293 119.896C473.432 122.449 471.292 123.728 468.86 123.728H405.95V98.2027H468.86C471.522 98.2027 473.724 99.4071 475.46 101.817C477.203 104.228 478.067 107.163 478.067 110.625ZM339.639 52.9748H359.534C361.542 52.9748 363.332 50.9749 363.369 48.3658C363.391 46.8596 362.869 45.5105 362.033 44.6288C361.411 43.9779 360.618 43.5857 359.763 43.5857H358.408V36.3662H366.731V38.7667H373.598C374.324 39.7542 375.135 40.6401 376.014 41.3911C378.068 43.1421 380.519 44.1518 383.151 44.1518C385.792 44.1518 388.243 43.1309 390.297 41.3911C390.646 41.0935 390.974 40.7583 391.298 40.4203H398.694C400.978 40.4203 403.047 41.7958 404.73 43.8055C405.449 44.6622 406.406 45.1865 407.461 45.1865L424.153 45.1239V44.8861H463.296C466.308 44.8861 468.804 46.0084 470.77 48.2434C472.741 50.4895 473.724 53.2502 473.724 56.5255C473.724 59.8452 472.752 62.681 470.794 65.0272C468.683 67.5543 465.861 68.8352 462.99 68.8352H402.806C387.746 68.8352 375.536 84.7067 375.536 104.285V157.616H473.724C485.311 157.616 493.765 155.063 499.097 149.932C504.423 144.823 507.094 138.118 507.094 129.836V114.693C507.094 105.959 505.533 98.5838 502.402 92.5576C499.272 86.5313 495.215 83.5245 490.239 83.5245C495.565 79.7639 499.217 75.9726 501.181 72.1522C503.154 68.3206 504.138 62.5823 504.138 54.9191V40.7346C504.138 32.4735 501.792 25.4584 497.101 19.6798C492.409 13.8914 486.76 11.0069 480.159 11.0069H424.153V10.9388L407.461 10.9179C406.432 10.9179 405.497 11.4144 404.785 12.2308C403.142 14.1111 401.132 15.36 398.943 15.36L392.681 15.3586C390.828 12.8177 388.387 11.0111 385.637 10.3185V8.01953H389.787C390.494 9.7121 391.995 10.7663 393.659 10.2642C394.852 9.90402 395.843 8.66484 396.158 7.12803C396.78 4.11284 395.039 1.38972 392.824 1.38972C391.505 1.38972 390.374 2.35491 389.787 3.75681H385.637V3.487C385.637 1.86536 384.784 0.349417 383.549 0.111595C382.004 -0.188811 380.666 1.35773 380.666 3.30759V3.75681H375.937C375.234 2.05172 373.717 0.994738 372.038 1.53575C370.854 1.91543 369.875 3.15739 369.568 4.69281C368.967 7.69548 370.693 10.3977 372.908 10.3977C374.228 10.3977 375.359 9.42143 375.937 8.01953H380.666V10.3185C377.905 11.0139 375.455 12.8316 373.598 15.3892H366.731V17.7897H351.401C347.026 17.7897 343.282 21.3 341.745 26.2706C341.262 27.8297 340.994 29.5348 340.994 31.3177V43.5857H339.832C337.944 43.5857 336.23 45.3617 336.05 47.8067C335.842 50.6202 337.528 52.9748 339.639 52.9748Z" fill="#00ADEE"/>
<path d="M94.3911 158.07H97.6724H128.085H131.883C133.967 158.07 135.657 155.873 135.657 153.165C135.657 150.454 133.967 148.258 131.883 148.258H128.085V120.802H187.176C190.068 120.802 192.391 123.81 194.126 129.836C195.382 134.198 196.184 140.346 196.531 148.258H193.21C191.126 148.258 189.436 150.454 189.436 153.165C189.436 155.873 191.126 158.07 193.21 158.07H196.732H227.146H230.702C232.787 158.07 234.476 155.873 234.476 153.165C234.476 150.454 232.787 148.258 230.702 148.258H227.066C226.828 133.96 226.041 123.184 224.713 115.941C223.089 107.133 218.976 102.199 212.375 101.149C216.893 96.7915 220.482 92.4746 223.144 88.1896C225.814 83.9158 227.146 78.8367 227.146 72.976V48.1925C227.146 37.9745 224.158 29.2293 218.191 21.9361C212.225 14.6526 205.078 11.0074 196.732 11.0074H105.221V5.72386C105.221 3.01464 103.53 0.818612 101.446 0.818612C99.3618 0.818612 97.6724 3.01464 97.6724 5.72386V11.0074V48.1104V54.4593C97.6724 57.1699 99.3618 59.3659 101.446 59.3659C103.53 59.3659 105.221 57.1699 105.221 54.4593V48.1257L128.085 48.1716L183.175 48.2856C186.883 48.2856 190.068 49.8614 192.731 53.0031C195.401 56.1449 196.732 59.9556 196.732 64.4478C196.732 69.6896 195.401 74.1707 192.731 77.9104C190.068 81.66 186.883 83.5236 183.175 83.5236H97.6724V148.258H94.3911C92.3069 148.258 90.6165 150.454 90.6165 153.165C90.6165 155.873 92.3069 158.07 94.3911 158.07Z" fill="#00ADEE"/>
<path d="M0 303.718H171.362V297.64H0V303.718Z" fill="#808184"/>
<path d="M424.509 303.718H595.871V297.64H424.509V303.718Z" fill="#808184"/>
<path d="M204.78 297.805L194.82 297.387C194.312 297.387 194.005 297.23 193.898 296.911C193.79 296.594 193.737 296.067 193.737 295.331C193.737 294.747 193.872 294.252 194.146 293.844C194.419 293.44 194.742 293.237 195.114 293.237H202.144C202.847 293.237 203.365 293.454 203.696 293.883C204.028 294.315 204.195 294.888 204.195 295.597H209.321V293.237C209.321 291.865 208.93 290.7 208.149 289.732C207.367 288.768 206.421 288.287 205.308 288.287H193.737C192.31 288.287 191.099 288.768 190.104 289.729C189.108 290.692 188.61 291.857 188.61 293.223V297.061C188.61 298.832 189.025 300.268 189.855 301.371C190.685 302.471 191.979 303.024 193.737 303.024L202.964 303.442C203.472 303.442 203.902 303.659 204.253 304.089C204.605 304.52 204.78 305.042 204.78 305.651C204.78 306.31 204.532 306.875 204.033 307.345C203.535 307.815 202.935 308.048 202.232 308.048H195.201C194.792 308.048 194.444 307.777 194.161 307.231C193.878 306.685 193.737 306.03 193.737 305.27L188.61 305.079V308.048C188.61 309.396 189.112 310.556 190.118 311.534C191.124 312.511 192.331 313.001 193.737 313.001H203.55C205.678 313.001 207.271 312.44 208.325 311.325C209.38 310.208 209.907 308.062 209.907 304.89C209.907 302.222 209.443 300.378 208.515 299.348C207.588 298.321 206.342 297.805 204.78 297.805Z" fill="#808184"/>
<path d="M218.636 312.998H238.117V307.286H223.763V302.983H237.297V298.03H223.763V293.994H238.117V288.284H218.636V312.998Z" fill="#808184"/>
<path d="M262.635 299.56C262.186 300.193 261.649 300.508 261.024 300.508H251.738V294.567H261.024C261.649 294.567 262.186 294.831 262.635 295.36C263.085 295.89 263.309 296.534 263.309 297.291C263.309 298.175 263.085 298.93 262.635 299.56ZM263.309 288.285H246.611V313.074H251.738V306.79H261.698C262.186 306.79 262.576 307.298 262.87 308.312C263.163 309.327 263.309 310.917 263.309 313.074H268.435C268.435 309.825 268.298 307.457 268.025 305.97C267.752 304.487 267.059 303.656 265.946 303.476C266.707 302.743 267.313 302.016 267.762 301.293C268.21 300.571 268.435 299.717 268.435 298.728V294.55C268.435 292.829 267.932 291.354 266.927 290.126C265.921 288.898 264.715 288.285 263.309 288.285Z" fill="#808184"/>
<path d="M288.884 308.125L281.443 288.287H275.759L285.017 313.001H292.78L302.065 288.287H296.353L288.884 308.125Z" fill="#808184"/>
<path d="M311.06 313H316.185V288.285H311.06V313Z" fill="#808184"/>
<path d="M344.308 288.287H330.247C328.822 288.287 327.612 288.844 326.615 289.961C325.618 291.075 325.121 292.419 325.121 293.99V307.297C325.121 308.869 325.628 310.214 326.644 311.327C327.659 312.444 328.861 313.001 330.247 313.001H344.308C345.734 313.001 346.946 312.441 347.942 311.324C348.937 310.209 349.435 308.864 349.435 307.288V303.746H344.308C344.308 304.711 344.02 305.541 343.444 306.24C342.868 306.94 342.18 307.288 341.379 307.288H333.177C332.376 307.288 331.687 306.94 331.111 306.245C330.536 305.547 330.247 304.718 330.247 303.757V297.113C330.247 296.2 330.526 295.453 331.082 294.871C331.639 294.29 332.337 293.997 333.177 293.997H341.379C342.199 293.997 342.893 294.298 343.459 294.902C344.025 295.504 344.308 296.23 344.308 297.083H349.435V293.973C349.435 292.406 348.926 291.066 347.912 289.955C346.897 288.841 345.695 288.287 344.308 288.287Z" fill="#808184"/>
<path d="M358.136 312.998H377.617V307.286H363.263V302.983H376.796V298.03H363.263V293.994H377.617V288.284H358.136V312.998Z" fill="#808184"/>
<path d="M402.136 297.805L392.175 297.387C391.668 297.387 391.361 297.23 391.253 296.911C391.147 296.594 391.093 296.067 391.093 295.331C391.093 294.747 391.23 294.252 391.504 293.844C391.775 293.44 392.098 293.237 392.47 293.237H399.5C400.203 293.237 400.721 293.454 401.052 293.883C401.384 294.315 401.55 294.888 401.55 295.597H406.677V293.237C406.677 291.865 406.286 290.7 405.505 289.732C404.724 288.768 403.776 288.287 402.664 288.287H391.093C389.668 288.287 388.456 288.768 387.46 289.729C386.464 290.692 385.967 291.857 385.967 293.223V297.061C385.967 298.832 386.381 300.268 387.211 301.371C388.041 302.471 389.335 303.024 391.093 303.024L400.321 303.442C400.828 303.442 401.258 303.659 401.61 304.089C401.961 304.52 402.136 305.042 402.136 305.651C402.136 306.31 401.888 306.875 401.389 307.345C400.892 307.815 400.291 308.048 399.588 308.048H392.557C392.147 308.048 391.8 307.777 391.517 307.231C391.234 306.685 391.093 306.03 391.093 305.27L385.967 305.079V308.048C385.967 309.396 386.469 310.556 387.475 311.534C388.48 312.511 389.687 313.001 391.093 313.001H400.907C403.035 313.001 404.626 312.44 405.681 311.325C406.736 310.208 407.263 308.062 407.263 304.89C407.263 302.222 406.799 300.378 405.871 299.348C404.944 298.321 403.698 297.805 402.136 297.805Z" fill="#808184"/>
<path d="M334.417 157.616C343.799 157.616 351.739 154.311 358.229 147.677C364.71 141.054 367.961 133.071 367.961 123.728V73.3566H362.208C362.738 74.9323 363.404 77.3842 363.444 80.3202C363.514 86.676 360.899 91.1056 359.774 92.7119C356.335 97.6255 351.969 98.5114 350.258 98.6658L349.933 98.6964L349.608 98.6658C347.888 98.5114 343.531 97.6255 340.091 92.7119C338.965 91.1153 336.35 86.6857 336.421 80.3202C336.453 77.3842 337.119 74.9323 337.649 73.3566H301.307V70.8059C301.307 68.0967 299.616 65.9006 297.532 65.9006C295.448 65.9006 293.759 68.0967 293.759 70.8059V108.129C293.759 110.839 295.448 113.035 297.532 113.035C299.616 113.035 301.307 110.839 301.307 108.129V102.724H337.548C337.548 108.451 336.478 113.375 334.329 117.516C332.191 121.666 329.607 123.728 326.595 123.728H280.2C275.445 123.728 271.364 121.666 267.948 117.537C264.525 113.405 262.821 108.493 262.821 102.787V63.3653C262.821 57.9579 264.47 53.5283 267.774 50.0778C269.882 47.8623 290.049 46.3798 331.548 45.5759C332.182 42.4036 333.95 39.7861 336.239 38.4273V31.3191C336.239 28.7754 336.604 26.304 337.334 23.955C339.567 16.7341 346.383 11.171 354.362 11.0069H262.821C254.359 11.0069 247.18 14.3128 241.268 20.9259C235.365 27.5501 232.408 35.5123 232.408 44.8346V123.789C232.408 133.111 235.42 141.084 241.443 147.697C247.465 154.311 254.589 157.616 262.821 157.616H334.417Z" fill="#808184"/>
</svg>
