<svg width="80" height="80" viewBox="0 0 80 80" fill="none" xmlns="http://www.w3.org/2000/svg">
<path d="M75.758 41.3241C78.0978 41.3241 80.0002 39.4218 80.0002 37.0819C80.0002 34.7421 78.0979 32.8397 75.758 32.8397H69.758C69.4767 32.3475 69.0705 31.9413 68.5783 31.6639V28.7186C68.5783 26.3084 66.6174 24.3475 64.2072 24.3475C61.797 24.3475 59.8322 26.3084 59.8322 28.7186V31.6639C59.34 31.9412 58.9337 32.3475 58.6525 32.8397H52.6525C50.3166 32.8397 48.4103 34.742 48.4103 37.0819C48.4103 39.4217 50.3126 41.3241 52.6525 41.3241H58.2345V44.6444C55.3556 45.6756 53.2853 48.4217 53.2853 51.6522V66.7852H49.8908V60.8086C49.8908 58.4375 47.9846 56.5078 45.6252 56.457V26.668H50.3908C50.9455 26.668 51.3908 26.2188 51.3908 25.668V19.1992C51.3908 17.293 50.047 15.6992 48.258 15.3008L47.3049 7.2461C47.2736 3.2422 44.008 0 40.0002 0C35.9924 0 32.7268 3.2422 32.6955 7.2422L31.7502 15.2578C29.8361 15.5547 28.3634 17.1992 28.3634 19.1953V25.6641C28.3634 26.2149 28.8088 26.6641 29.3634 26.6641L34.3752 26.668V56.449H34.2189C31.8127 56.449 29.8595 58.406 29.8595 60.8084V66.785H25.922V51.652C25.922 48.7262 24.2228 46.195 21.7618 44.9801V41.3239H27.3438C29.6797 41.3239 31.586 39.4216 31.586 37.0817C31.586 34.7419 29.6837 32.8395 27.3438 32.8395H21.3438C21.0625 32.3473 20.6563 31.9411 20.1641 31.6637V28.7184C20.1641 26.3082 18.2032 24.3473 15.793 24.3473C13.3828 24.3473 11.418 26.3082 11.418 28.7184V31.6637C10.9258 31.941 10.5196 32.3473 10.2383 32.8395H4.2383C1.9024 32.8395 0 34.7418 0 37.0817C0 39.4215 1.9023 41.3239 4.2422 41.3239H9.8242V44.6442C6.9453 45.6754 4.875 48.4215 4.875 51.652V66.785H1C0.44531 66.785 0 67.2342 0 67.785V79C0 79.5508 0.44531 80 1 80H79C79.5547 80 80 79.5508 80 79V67.785C80 67.2342 79.5547 66.785 79 66.785H74.3359V51.652C74.3359 48.7262 72.6367 46.195 70.1757 44.9801V41.3239L75.758 41.3241ZM78.0002 37.0819C78.0002 38.3163 76.9963 39.3241 75.758 39.3241H70.176V34.8436H75.758C76.9963 34.8397 78.0002 35.8475 78.0002 37.0819ZM64.2112 26.3479C65.5198 26.3479 66.5823 27.4104 66.5823 28.719V31.2502H61.8362V28.719C61.8362 27.4143 62.8987 26.3479 64.2112 26.3479ZM52.6562 39.3249C51.4218 39.3249 50.414 38.321 50.414 37.0827C50.414 35.8483 51.4179 34.8405 52.6562 34.8405H58.2382V39.321L52.6562 39.3249ZM34.6952 7.3049C34.6952 4.3791 37.0741 2.0002 39.9999 2.0002C42.9257 2.0002 45.3046 4.3791 45.3046 7.3049C45.3046 7.34396 45.3046 7.38302 45.3124 7.42209L46.2304 15.1955H33.7694L34.6873 7.42209C34.6951 7.38303 34.6952 7.34397 34.6952 7.3049ZM30.3593 19.1959C30.3593 18.0943 31.2577 17.1959 32.3593 17.1959H47.3903C48.4919 17.1959 49.3903 18.0943 49.3903 19.1959V24.6647L30.3593 24.6686V19.1959ZM36.3749 26.6686H43.6249V56.4496H36.3749V26.6686ZM31.8593 60.8096C31.8593 59.5088 32.9179 58.4502 34.2187 58.4502H45.5277C46.8285 58.4502 47.8871 59.5088 47.8871 60.8096V66.7862H31.8561L31.8593 60.8096ZM29.582 37.0826C29.582 38.317 28.5781 39.3248 27.3398 39.3248H21.7578V34.8443H27.3398C28.5781 34.8404 29.582 35.8482 29.582 37.0826ZM15.793 26.3486C17.1016 26.3486 18.1641 27.4111 18.1641 28.7197V31.2509H13.418V28.7197C13.418 27.415 14.4844 26.3486 15.793 26.3486ZM4.24198 39.3256C3.00758 39.3256 1.99978 38.3178 1.99978 37.0834C1.99978 35.849 3.00758 34.8412 4.24198 34.8412H9.82398V39.3217L4.24198 39.3256ZM11.8201 34.3725C11.8201 33.7553 12.324 33.2514 12.9412 33.2514H18.6365C19.2537 33.2514 19.7576 33.7553 19.7576 34.3725V44.3217C19.3396 44.2475 18.9099 44.2045 18.4685 44.2045H12.3123C12.1443 44.2045 11.9802 44.2201 11.8123 44.2279L11.8201 34.3725ZM6.87478 51.6535C6.87478 48.6496 9.32008 46.2082 12.3201 46.2082H18.4763C21.4802 46.2082 23.9216 48.6535 23.9216 51.6535V66.7865H6.87458L6.87478 51.6535ZM77.9998 78.0015H1.99978V68.7867H77.9998V78.0015ZM72.3357 51.6535V66.7865H55.2887V51.6535C55.2887 48.6496 57.734 46.2082 60.734 46.2082H66.8902C69.8941 46.2043 72.3357 48.6496 72.3357 51.6535ZM66.8904 44.2043H60.7342C60.5662 44.2043 60.4022 44.2199 60.2381 44.2277V34.3722C60.2381 33.755 60.742 33.2511 61.3592 33.2511H67.0545C67.6717 33.2511 68.1756 33.755 68.1756 34.3722V44.3214C67.7576 44.2511 67.3318 44.2043 66.8904 44.2043Z" fill="black"/>
</svg>
