<svg width="65" height="48" viewBox="0 0 65 48" fill="none" xmlns="http://www.w3.org/2000/svg">
<path d="M62.8073 2.29153C61.7157 1.19999 60.2648 0.599121 58.7213 0.599121C57.1778 0.599121 55.7269 1.19999 54.6354 2.29153L23.4774 33.4485L10.3646 20.3367C9.27308 19.2451 7.82221 18.6442 6.27869 18.6442C4.73517 18.6442 3.28429 19.2451 2.19274 20.3367C1.1012 21.4279 0.5 22.8791 0.5 24.4226C0.5 25.9664 1.1012 27.4177 2.19274 28.5089L19.3908 45.7073C20.4821 46.7992 21.9333 47.4007 23.4774 47.4007C25.022 47.4007 26.4732 46.7992 27.5634 45.7076L62.8073 10.4638C63.8988 9.37253 64.5 7.92133 64.5 6.37748C64.5 4.83396 63.8988 3.38275 62.8073 2.29153ZM60.6764 8.33293L25.4319 43.5775C24.9104 44.0996 24.2163 44.3871 23.4774 44.3871C22.7386 44.3871 22.0444 44.0996 21.522 43.5768L4.32356 26.3781C3.80111 25.8556 3.51326 25.1614 3.51326 24.4226C3.51326 23.6841 3.80111 22.9899 4.32356 22.4675C4.86255 21.9285 5.57062 21.6588 6.27869 21.6588C6.98676 21.6588 7.69482 21.9285 8.23381 22.4675L22.412 36.6447C23.0003 37.233 23.9546 37.233 24.5428 36.6447L56.7662 4.42235C57.2883 3.90023 57.9828 3.61238 58.7213 3.61238C59.4598 3.61238 60.1543 3.90023 60.6764 4.42235C61.1989 4.9448 61.4867 5.63897 61.4867 6.37748C61.4867 7.11632 61.1989 7.81049 60.6764 8.33293Z" fill="url(#paint0_linear_85_1175)" fill-opacity="0.85"/>
<defs>
<linearGradient id="paint0_linear_85_1175" x1="0.5" y1="19.8764" x2="63.9776" y2="38.8665" gradientUnits="userSpaceOnUse">
<stop stop-color="#4D4D4D" stop-opacity="0.75"/>
<stop offset="1"/>
</linearGradient>
</defs>
</svg>
