<svg width="79" height="88" viewBox="0 0 79 88" fill="none" xmlns="http://www.w3.org/2000/svg">
<path d="M76.5671 84.3715H55.3791C55.8244 83.1293 55.758 81.766 55.1096 80.5629L49.9729 71.141C56.4807 67.7504 60.9419 60.953 60.9419 53.125V51.2734C62.7583 50.625 64.0669 48.9062 64.0669 46.875C64.0669 44.2891 61.9653 42.1875 59.3794 42.1875H56.2544V35.9375H57.8169C60.4028 35.9375 62.5044 33.8359 62.5044 31.25V12.5C62.5044 11.8828 62.3794 11.2969 62.1607 10.7578C64.1529 10.2187 65.6294 8.4101 65.6294 6.25V4.6875C65.6294 2.1016 63.5278 0 60.9419 0H17.192C14.6061 0 12.5045 2.1016 12.5045 4.6875V6.25C12.5045 8.4102 13.9811 10.2148 15.9733 10.7578C15.7545 11.2969 15.6295 11.8828 15.6295 12.5V31.25C15.6295 33.8359 17.7311 35.9375 20.317 35.9375H21.8795V42.1875H18.7545C16.1686 42.1875 14.067 44.2891 14.067 46.875C14.067 48.9102 15.3756 50.6289 17.192 51.2734V53.125C17.192 54.1914 17.2975 55.2266 17.4576 56.25V56.2578C18.4693 62.7422 22.5396 68.2148 28.1606 71.1408L23.0161 80.5705C22.3716 81.7697 22.3052 83.133 22.7505 84.3713H1.5625C0.69922 84.3713 0 85.0705 0 85.9338C0 86.7971 0.69922 87.4963 1.5625 87.4963H76.5625C77.4258 87.4963 78.125 86.7971 78.125 85.9338C78.125 85.0705 77.4258 84.3713 76.5625 84.3713L76.5671 84.3715ZM15.6291 4.6835C15.6291 3.82022 16.3284 3.121 17.1916 3.121H60.9416C61.8049 3.121 62.5041 3.82022 62.5041 4.6835V6.246C62.5041 7.10928 61.8049 7.8085 60.9416 7.8085H17.1916C16.3284 7.8085 15.6291 7.10928 15.6291 6.246V4.6835ZM18.7541 31.2455V12.4955C18.7541 11.6322 19.4534 10.933 20.3166 10.933H57.8166C58.6799 10.933 59.3791 11.6322 59.3791 12.4955V31.2455C59.3791 32.1088 58.6799 32.808 57.8166 32.808H20.3166C19.4534 32.808 18.7541 32.1088 18.7541 31.2455ZM25.0041 35.933H53.1291V42.183H25.0041V35.933ZM18.7541 45.308H59.3791C60.2424 45.308 60.9416 46.0072 60.9416 46.8705C60.9416 47.7338 60.2424 48.433 59.3791 48.433H18.7541C17.8909 48.433 17.1916 47.7338 17.1916 46.8705C17.1916 46.0072 17.8909 45.308 18.7541 45.308ZM20.9846 57.808H31.3006C32.1639 57.808 32.8631 57.1088 32.8631 56.2455C32.8631 55.3822 32.1639 54.683 31.3006 54.683H20.3946C20.3478 54.1674 20.3165 53.6478 20.3165 53.1205V51.558H57.8165V53.1205C57.8165 62.5971 50.1056 70.3085 40.6285 70.3085H37.5035C29.6519 70.3085 23.0305 65.0116 20.9835 57.8085L20.9846 57.808ZM27.1448 84.37C26.3441 84.37 25.9378 83.8388 25.801 83.6122C25.6643 83.3817 25.3831 82.7645 25.7659 82.0575L31.0511 72.3661C33.0823 73.0497 35.2464 73.4364 37.5042 73.4364H40.6292C42.887 73.4364 45.0511 73.0497 47.0823 72.3661L52.3635 82.0497C52.7502 82.7684 52.4689 83.3817 52.3322 83.6161C52.1955 83.8426 51.7932 84.3739 50.9884 84.3739H27.1444L27.1448 84.37ZM28.1292 26.558C31.5745 26.558 34.3792 23.7533 34.3792 20.308C34.3792 16.8627 31.5745 14.058 28.1292 14.058C24.6839 14.058 21.8792 16.8627 21.8792 20.308C21.8792 23.7533 24.6839 26.558 28.1292 26.558ZM28.1292 17.183C29.8519 17.183 31.2542 18.5853 31.2542 20.308C31.2542 22.0307 29.8519 23.433 28.1292 23.433C26.4065 23.433 25.0042 22.0307 25.0042 20.308C25.0042 18.5853 26.4065 17.183 28.1292 17.183ZM45.3172 28.121C45.3172 27.2577 46.0164 26.5585 46.8797 26.5585H54.6922C55.5555 26.5585 56.2547 27.2577 56.2547 28.121C56.2547 28.9843 55.5555 29.6835 54.6922 29.6835H46.8797C46.0164 29.6835 45.3172 28.9843 45.3172 28.121ZM45.3172 21.871C45.3172 21.0077 46.0164 20.3085 46.8797 20.3085H54.6922C55.5555 20.3085 56.2547 21.0077 56.2547 21.871C56.2547 22.7343 55.5555 23.4335 54.6922 23.4335H46.8797C46.0164 23.4335 45.3172 22.7343 45.3172 21.871Z" fill="black"/>
</svg>
