<svg width="17" height="18" viewBox="0 0 17 18" fill="none" xmlns="http://www.w3.org/2000/svg">
<path fill-rule="evenodd" clip-rule="evenodd" d="M9.96681 10.7461C10.2436 10.3313 10.6916 10.0622 11.1875 10.0136C11.6834 9.96371 12.1759 10.1399 12.5289 10.4929L14.6276 12.5916C14.9605 12.9245 15.1367 13.3823 15.1131 13.8519C15.0902 14.3214 14.8683 14.7591 14.5049 15.0573L13.4035 15.9583C11.7846 17.283 9.48336 17.3732 7.76674 16.1782C7.76466 16.1768 7.76328 16.1761 7.76189 16.1754C5.05344 14.2514 2.93181 12.1235 1.03409 9.39697C-0.150551 7.69632 -0.0652351 5.41722 1.23869 3.81086C1.53693 3.39888 1.85389 3.01117 2.12578 2.67894C2.42402 2.31481 2.86166 2.09355 3.33123 2.06997C3.80078 2.04639 4.25855 2.22256 4.59147 2.55548L6.69019 4.6542C7.04323 5.00724 7.2194 5.49968 7.17015 5.99559C7.1209 6.4922 6.85179 6.94025 6.43703 7.21629L5.8579 7.60262C5.65189 7.74064 5.56173 7.99797 5.63664 8.23309C6.17625 9.90463 7.27419 11.0129 8.95056 11.5422C9.1836 11.6164 9.43746 11.5276 9.5727 11.3244C9.57617 11.3196 9.57894 11.3147 9.5831 11.3106C9.70587 11.1372 9.83696 10.9409 9.96666 10.746L9.96681 10.7461ZM8.43262 4.31177C8.12674 4.31177 7.87775 4.06278 7.87775 3.75691C7.87775 3.45103 8.12674 3.20204 8.43262 3.20204C11.4955 3.20204 13.9813 5.68784 13.9813 8.75069C13.9813 9.05657 13.7323 9.30555 13.4264 9.30555C13.1205 9.30555 12.8715 9.05657 12.8715 8.75069C12.8715 6.30094 10.8824 4.31177 8.43262 4.31177ZM8.43262 2.09231C8.12605 2.09231 7.87775 1.84402 7.87775 1.53814C7.87775 1.23088 8.12605 0.982585 8.43262 0.983278C12.7197 0.982584 16.2007 4.46374 16.2 8.75067C16.2007 9.05724 15.9524 9.30554 15.6458 9.30554C15.3393 9.30554 15.091 9.05724 15.091 8.75067C15.091 5.07614 12.1072 2.09231 8.43262 2.09231Z" fill="white"/>
</svg>
