<svg width="32" height="45" viewBox="0 0 32 45" fill="none" xmlns="http://www.w3.org/2000/svg">
<path fill-rule="evenodd" clip-rule="evenodd" d="M16.0001 0C24.83 0 32 7.17002 32 15.9999C32 24.1397 27.124 34.7959 22.462 40.4499C21.18 42.0039 19.904 43.1919 18.752 43.9039C17.764 44.5139 16.826 44.7999 16 44.7999C15.174 44.7999 14.236 44.5139 13.248 43.9039C12.096 43.1919 10.82 42.0039 9.53802 40.4499C4.87602 34.7959 0 24.1402 0 15.9999C0 7.17002 7.17013 0 16.0001 0ZM16.0001 3.19999C8.93601 3.19999 3.20009 8.93591 3.20009 15.9999C3.20009 23.468 7.7321 33.2261 12.008 38.4137C12.868 39.4597 13.714 40.3117 14.512 40.8977C15.066 41.3037 15.55 41.5997 15.9999 41.5997C16.4499 41.5997 16.9339 41.3037 17.4879 40.8977C18.2859 40.3117 19.1319 39.4597 19.9919 38.4137C24.2679 33.2256 28.7998 23.468 28.7998 15.9999C28.7998 8.93591 23.0641 3.19999 16.0001 3.19999ZM16.0001 7.99997C20.416 7.99997 24 11.584 24 15.9999C24 20.4159 20.416 23.9999 16.0001 23.9999C11.5841 23.9999 8.00008 20.4159 8.00008 15.9999C8.00008 11.584 11.5841 7.99997 16.0001 7.99997ZM16.0001 11.2C13.3501 11.2 11.2001 13.3499 11.2001 15.9999C11.2001 18.6499 13.3501 20.7999 16.0001 20.7999C18.6501 20.7999 20.8 18.6499 20.8 15.9999C20.8 13.3499 18.6501 11.2 16.0001 11.2Z" fill="white"/>
</svg>
