<svg width="36" height="48" viewBox="0 0 36 48" fill="none" xmlns="http://www.w3.org/2000/svg">
<path d="M32 3.2H28.8V1.6C28.8 0.715981 28.084 0 27.2 0C26.316 0 25.6 0.715981 25.6 1.6V3.2H19.2V1.6C19.2 0.715981 18.484 0 17.6 0C16.716 0 16 0.715981 16 1.6V3.2H9.6V1.6C9.6 0.715981 8.88402 0 8 0C7.11598 0 6.4 0.715981 6.4 1.6V3.2H3.2C1.43401 3.202 0.0019968 4.63401 0 6.4V44.8C0.00199987 46.566 1.43401 47.998 3.2 48H32C33.766 47.998 35.198 46.566 35.2 44.8V6.4C35.198 4.63401 33.766 3.202 32 3.2ZM3.2 44.8V6.4H6.4V8C6.4 8.88402 7.11598 9.6 8 9.6C8.88402 9.6 9.6 8.88402 9.6 8V6.4H16V8C16 8.88402 16.716 9.6 17.6 9.6C18.484 9.6 19.2 8.88402 19.2 8V6.4H25.6V8C25.6 8.88402 26.316 9.6 27.2 9.6C28.084 9.6 28.8 8.88402 28.8 8V6.4H32L32.002 44.8H3.2ZM27.2 22.4C27.2 22.824 27.032 23.232 26.732 23.532C26.432 23.832 26.024 24 25.6 24H9.60002C8.716 24 8.00002 23.284 8.00002 22.4C8.00002 21.516 8.716 20.8 9.60002 20.8H25.6C26.024 20.8 26.432 20.968 26.732 21.268C27.032 21.568 27.2 21.976 27.2 22.4ZM27.2 32C27.2 32.424 27.032 32.832 26.732 33.132C26.432 33.432 26.024 33.6 25.6 33.6H9.60002C8.716 33.6 8.00002 32.884 8.00002 32C8.00002 31.116 8.716 30.4 9.60002 30.4H25.6C26.024 30.4 26.432 30.568 26.732 30.868C27.032 31.168 27.2 31.576 27.2 32Z" fill="white"/>
</svg>
