<svg width="32" height="33" viewBox="0 0 32 33" fill="none" xmlns="http://www.w3.org/2000/svg">
<path fill-rule="evenodd" clip-rule="evenodd" d="M19.5336 19.5256C20.0871 18.6961 20.9832 18.1578 21.975 18.0607C22.9668 17.9609 23.9517 18.3132 24.6578 19.0193L28.8552 23.2167C29.5211 23.8825 29.8734 24.7981 29.8262 25.7372C29.7805 26.6763 29.3366 27.5516 28.6097 28.1481L26.4069 29.95C23.1693 32.5995 18.5667 32.7798 15.1335 30.3897C15.1293 30.387 15.1265 30.3856 15.1238 30.3842C9.70685 26.5362 5.46361 22.2805 1.66815 16.8274C-0.701126 13.4261 -0.530495 8.86788 2.07735 5.65517C2.67383 4.8312 3.30775 4.05578 3.85153 3.39133C4.44802 2.66306 5.3233 2.22055 6.26243 2.17339C7.20153 2.12623 8.11708 2.47857 8.78292 3.14442L12.9804 7.34186C13.6864 8.04793 14.0388 9.0328 13.9403 10.0246C13.8418 11.0178 13.3035 11.9139 12.474 12.466L11.3158 13.2387C10.9038 13.5147 10.7234 14.0294 10.8733 14.4996C11.9525 17.8427 14.1484 20.0593 17.5011 21.1179C17.9672 21.2663 18.4749 21.0887 18.7454 20.6823C18.7523 20.6726 18.7579 20.6629 18.7662 20.6545C19.0117 20.3078 19.2739 19.9152 19.5333 19.5254L19.5336 19.5256ZM16.4652 6.65699C15.8535 6.65699 15.3555 6.15902 15.3555 5.54726C15.3555 4.93551 15.8535 4.43753 16.4652 4.43753C22.5909 4.43753 27.5625 9.40912 27.5625 15.5348C27.5625 16.1466 27.0645 16.6446 26.4528 16.6446C25.841 16.6446 25.343 16.1466 25.343 15.5348C25.343 10.6353 21.3647 6.65699 16.4652 6.65699ZM16.4652 2.21808C15.8521 2.21808 15.3555 1.72149 15.3555 1.10973C15.3555 0.495209 15.8521 -0.00138205 16.4652 2.88982e-06C25.0394 -0.00138454 32.0014 6.96094 32 15.5348C32.0014 16.1479 31.5048 16.6445 30.8917 16.6445C30.2785 16.6445 29.7819 16.1479 29.7819 15.5348C29.7819 8.18572 23.8143 2.21808 16.4652 2.21808Z" fill="white"/>
</svg>
