<svg width="32" height="26" viewBox="0 0 32 26" fill="none" xmlns="http://www.w3.org/2000/svg">
<path fill-rule="evenodd" clip-rule="evenodd" d="M28.5714 0C29.4814 0 30.3529 0.361428 30.9957 1.00429C31.6386 1.64714 32 2.51856 32 3.42857V21.7143C32 22.6243 31.6386 23.4957 30.9957 24.1386C30.3529 24.7814 29.4814 25.1429 28.5714 25.1429H3.42857C2.51856 25.1429 1.64714 24.7814 1.00429 24.1386C0.361436 23.4957 0 22.6243 0 21.7143V3.42857C0 2.51856 0.361428 1.64714 1.00429 1.00429C1.64714 0.361435 2.51856 0 3.42857 0H28.5714ZM2.28571 3.90144V21.5428L9.91415 11.5299L2.28571 3.90144ZM28.0986 2.28571H3.90144C3.90144 2.28571 12.2416 10.6258 12.2485 10.6328L15.1914 13.5756C15.6371 14.0214 16.3628 14.0214 16.8085 13.5756C16.8085 13.5756 19.7657 10.6171 19.7742 10.6099L28.0986 2.28571ZM29.7143 21.5428V3.90144L22.0859 11.5299L29.7143 21.5428ZM4.15707 22.8571H27.8429L20.4544 13.1613L18.4244 15.1913C17.0858 16.5298 14.9144 16.5298 13.5758 15.1913L11.5457 13.1613L4.15707 22.8571Z" fill="white"/>
</svg>
